<svg xmlns="http://www.w3.org/2000/svg" width="71.343" height="54.283" viewBox="0 0 71.343 54.283">
  <g id="services5" transform="translate(0 -41.75)">
    <g id="Group_153" data-name="Group 153" transform="translate(0 41.75)">
      <path id="Path_257" data-name="Path 257" d="M68.973,56.562,40.534,42.669a11.647,11.647,0,0,0-9.071,0L2.37,56.562C.327,57.543,0,58.932,0,59.667s.327,2.043,2.37,3.105l2.37,1.144V76.992A4,4,0,0,0,2.206,80.67a4.057,4.057,0,0,0,2.452,3.677L.981,96.033h10.3L7.6,84.347a3.96,3.96,0,0,0-.082-7.355V65.306l4.331,2.125v17a1.318,1.318,0,0,0,.245.735A29.68,29.68,0,0,0,35.631,96.033,29.511,29.511,0,0,0,59.085,85.165a1.318,1.318,0,0,0,.245-.735V67.513l9.643-4.74c2.043-.981,2.37-2.37,2.37-3.105A3.653,3.653,0,0,0,68.973,56.562ZM56.715,84.02A27.328,27.328,0,0,1,35.631,93.5a27.328,27.328,0,0,1-21.084-9.48V68.575l16.916,8.09a11.021,11.021,0,0,0,4.495.9,9.951,9.951,0,0,0,4.576-.981l16.181-7.927ZM67.829,60.485l-9.807,4.822a.939.939,0,0,0-.9.49L39.39,74.377a9.073,9.073,0,0,1-6.865,0l-21.82-10.46,25.088-2.942a1.273,1.273,0,1,0-.245-2.533L6.456,61.874,3.514,60.485a1.648,1.648,0,0,1-.9-.735c0-.082.163-.409.9-.735L32.607,45.039a8.442,8.442,0,0,1,3.351-.654,8.283,8.283,0,0,1,3.432.654L67.829,58.932c.735.327.9.654.9.817A2.247,2.247,0,0,1,67.829,60.485Z" transform="translate(0 -41.75)" fill="#316ec2"/>
    </g>
  </g>
</svg>
