<svg id="services2" xmlns="http://www.w3.org/2000/svg" width="55.991" height="54.492" viewBox="0 0 55.991 54.492">
  <g id="Group_152" data-name="Group 152" transform="translate(0 0)">
    <g id="Group_151" data-name="Group 151" transform="translate(0 0)">
      <path id="Path_254" data-name="Path 254" d="M102.5,350.322a5.845,5.845,0,1,0,5.845,5.845A5.845,5.845,0,0,0,102.5,350.322Zm0,9.093a3.247,3.247,0,1,1,3.247-3.247A3.247,3.247,0,0,1,102.5,359.415Z" transform="translate(-84.638 -307.521)" fill="#316ec2"/>
      <path id="Path_255" data-name="Path 255" d="M301.029,350.322a5.845,5.845,0,1,0,5.845,5.845A5.845,5.845,0,0,0,301.029,350.322Zm0,9.093a3.247,3.247,0,1,1,3.247-3.247A3.247,3.247,0,0,1,301.029,359.415Z" transform="translate(-258.488 -307.521)" fill="#316ec2"/>
      <path id="Path_256" data-name="Path 256" d="M55.726,14.731a1.624,1.624,0,0,0-1.039-.52l-42.281-.585-1.169-3.572A5.975,5.975,0,0,0,5.651,6.028H1.3a1.3,1.3,0,1,0,0,2.6H5.651A3.378,3.378,0,0,1,8.768,10.9l8.248,24.875-.649,1.494a6.235,6.235,0,0,0,.585,5.651,6.04,6.04,0,0,0,4.871,2.728H47.088a1.3,1.3,0,0,0,0-2.6H21.823a3.312,3.312,0,0,1-2.728-1.559,3.572,3.572,0,0,1-.325-3.118l.52-1.169,27.343-2.858A7.144,7.144,0,0,0,52.8,28.89l3.118-13.055A1.1,1.1,0,0,0,55.726,14.731ZM50.27,28.305a4.416,4.416,0,0,1-3.962,3.442L19.29,34.54,13.25,16.225l39.813.585Z" transform="translate(0 -6.028)" fill="#316ec2"/>
    </g>
  </g>
</svg>
