<svg xmlns="http://www.w3.org/2000/svg" width="76.043" height="54.492" viewBox="0 0 76.043 54.492">
  <path id="services3" d="M9.064,32.767a1.33,1.33,0,0,0-.652,1.741l2.99,6.419a1.327,1.327,0,0,0,1.754.652L35.748,31.027,33.7,52.422a1.329,1.329,0,0,0,.438,1.117,5.8,5.8,0,0,0,3.509,1.329,4.273,4.273,0,0,0,1.05-.132c1.834-.479,3.256-2.113,4.226-4.9l8.891-26.326,17.608-8.213c5.183-2.418,7.854-7.322,6.06-11.15a6.728,6.728,0,0,0-5.2-3.628,12.318,12.318,0,0,0-7.256,1.117l-20.32,9.528L20.864,2.614c-2.751-1.036-4.93-1.01-6.459.094A5.42,5.42,0,0,0,12.425,7,1.33,1.33,0,0,0,13,8.05L27.708,18.163,19.283,22.15,5.156,18.561a1.33,1.33,0,0,0-1.475.638L.16,25.538a1.329,1.329,0,0,0,.691,1.874L11.31,31.731ZM15.149,6.335a2.274,2.274,0,0,1,.8-1.435c.758-.545,2.14-.465,3.987.226L39.39,12.714,30.512,16.86ZM3.189,25.525,5.5,21.418,19.1,24.794a1.331,1.331,0,0,0,.878-.079L64.161,4.076a9.713,9.713,0,0,1,5.674-.9,4.162,4.162,0,0,1,3.243,2.1c1.115,2.393-1.077,5.888-4.785,7.615L52.984,20.063l.931-2.752a1.351,1.351,0,1,0-2.565-.85L40.413,49.007c-.651,1.848-1.462,2.951-2.365,3.19a2.249,2.249,0,0,1-1.621-.305l2.658-27.908a1.335,1.335,0,0,0-2.658-.252L36.014,28,13.209,38.628l-1.873-3.987,3.747-1.754a1.329,1.329,0,0,0,0-2.432Zm0,0" transform="translate(0.001 -0.376)" fill="#316ec2"/>
</svg>
